<svg width="33" height="39" viewBox="0 0 33 39" fill="none" xmlns="http://www.w3.org/2000/svg">
<path d="M32.0477 33.6805L19.0477 38.6805C17.5475 34.6804 11.5478 30.1805 6.04778 26.6805C0.547777 23.1805 -0.952223 19.6805 0.547777 18.1805C2.04778 16.6805 8.04785 20.6805 9.04767 19.6805C10.0475 18.6805 0.547668 1.68047 5.04767 0.180472C9.54767 -1.31953 9.58718 6.9445 12.5477 9.68047C14.5 11.4847 14.9521 6.78901 18.5 10.4847C20.4521 8.78894 21.9523 8.78896 23.5 10.9847C26.5 7.98474 28.0477 12.6804 30.0477 16.6804C32.0477 20.6804 31.0477 27.1805 30.5477 28.6805C30.1477 29.8805 31.381 32.5138 32.0477 33.6805Z" fill="white"/>
</svg>
